HIERARCHY
ROOT Hips
{
	OFFSET 0.000000 103.266502 0.000000
	CHANNELS 6 Xposition Yposition Zposition Xrotation Yrotation Zrotation 
	JOINT Spine
	{
		OFFSET -0.002400 12.777504 0.315300
		CHANNELS 3 Xrotation Yrotation Zrotation
		JOINT Spine1
		{
			OFFSET -0.002067 5.816869 0.032633
			CHANNELS 3 Xrotation Yrotation Zrotation
			JOINT Spine1_split
			{
				OFFSET -0.002067 5.816869 0.032633
				CHANNELS 3 Xrotation Yrotation Zrotation
				JOINT Spine2
				{
					OFFSET -0.002067 5.816869 0.032633
					CHANNELS 3 Xrotation Yrotation Zrotation
					JOINT Neck
					{
						OFFSET -0.003700 21.199493 -0.826900
						CHANNELS 3 Xrotation Yrotation Zrotation
						JOINT Head
						{
							OFFSET 0.000000 20.442200 4.834800
							CHANNELS 3 Xrotation Yrotation Zrotation
							JOINT HeadTop_End
							{
								OFFSET 0.000000 34.668396 4.968400
								CHANNELS 3 Xrotation Yrotation Zrotation
								End Site
								{
									OFFSET 0.000000 0.000000 0.000000
								}
							}
						}
					}
					JOINT LeftShoulder
					{
						OFFSET 3.288150 8.794197 -1.372250
						CHANNELS 3 Xrotation Yrotation Zrotation
						JOINT LeftShoulder_split
						{
							OFFSET 3.288150 8.794197 -1.372250
							CHANNELS 3 Xrotation Yrotation Zrotation
							JOINT LeftArm
							{
								OFFSET 11.953299 -2.279007 -0.146200
								CHANNELS 3 Xrotation Yrotation Zrotation
								JOINT LeftForeArm
								{
									OFFSET 18.448900 0.000000 0.000000
									CHANNELS 3 Xrotation Yrotation Zrotation
									JOINT LeftHand
									{
										OFFSET 29.527798 0.000000 0.000000
										CHANNELS 3 Xrotation Yrotation Zrotation
										JOINT LeftHandThumb1
										{
											OFFSET 10.739754 -2.369614 9.225399
											CHANNELS 3 Xrotation Yrotation Zrotation
											JOINT LeftHandThumb2
											{
												OFFSET 4.926170 -2.844131 2.844125
												CHANNELS 3 Xrotation Yrotation Zrotation
												JOINT LeftHandThumb3
												{
													OFFSET 4.614891 -2.664413 2.664409
													CHANNELS 3 Xrotation Yrotation Zrotation
													JOINT LeftHandThumb4
													{
														OFFSET 4.432465 -2.559082 2.559083
														CHANNELS 3 Xrotation Yrotation Zrotation
														End Site
														{
															OFFSET 0.000000 0.000000 0.000000
														}
													}
												}
											}
										}
										JOINT LeftHandIndex1
										{
											OFFSET 26.467674 0.187653 6.405298
											CHANNELS 3 Xrotation Yrotation Zrotation
											JOINT LeftHandIndex2
											{
												OFFSET 8.792900 0.000000 0.000000
												CHANNELS 3 Xrotation Yrotation Zrotation
												JOINT LeftHandIndex3
												{
													OFFSET 10.075203 0.000000 0.000000
													CHANNELS 3 Xrotation Yrotation Zrotation
													End Site
													{
														OFFSET 0.000000 0.000000 0.000000
													}
												}
											}
										}
										JOINT LeftHandMiddle1
										{
											OFFSET 25.764404 0.000000 0.000000
											CHANNELS 3 Xrotation Yrotation Zrotation
											JOINT LeftHandMiddle2
											{
												OFFSET 9.393974 0.000000 0.000000
												CHANNELS 3 Xrotation Yrotation Zrotation
												JOINT LeftHandMiddle3
												{
													OFFSET 10.771950 0.000000 0.000000
													CHANNELS 3 Xrotation Yrotation Zrotation
													End Site
													{
														OFFSET 0.000000 0.000000 0.000000
													}
												}
											}
										}
										JOINT LeftHandRing1
										{
											OFFSET 24.660927 0.144547 -6.225808
											CHANNELS 3 Xrotation Yrotation Zrotation
											JOINT LeftHandRing2
											{
												OFFSET 9.393799 0.000000 0.000000
												CHANNELS 3 Xrotation Yrotation Zrotation
												JOINT LeftHandRing3
												{
													OFFSET 9.928497 0.000000 0.000000
													CHANNELS 3 Xrotation Yrotation Zrotation
													End Site
													{
														OFFSET 0.000000 0.000000 0.000000
													}
												}
											}
										}
										JOINT LeftHandPinky1
										{
											OFFSET 23.655350 0.125290 -12.815412
											CHANNELS 3 Xrotation Yrotation Zrotation
											JOINT LeftHandPinky2
											{
												OFFSET 8.425102 0.000000 0.000000
												CHANNELS 3 Xrotation Yrotation Zrotation
												JOINT LeftHandPinky3
												{
													OFFSET 8.147003 0.000000 0.000000
													CHANNELS 3 Xrotation Yrotation Zrotation
													End Site
													{
														OFFSET 0.000000 0.000000 0.000000
													}
												}
											}
										}
									}
								}
							}
						}
					}
					JOINT RightShoulder
					{
						OFFSET -3.249400 8.794197 -1.372250
						CHANNELS 3 Xrotation Yrotation Zrotation
						JOINT RightShoulder_split
						{
							OFFSET -3.249400 8.794197 -1.372250
							CHANNELS 3 Xrotation Yrotation Zrotation
							JOINT RightArm
							{
								OFFSET -11.953299 -2.279007 -0.146200
								CHANNELS 3 Xrotation Yrotation Zrotation
								JOINT RightForeArm
								{
									OFFSET -18.448900 0.000000 0.000000
									CHANNELS 3 Xrotation Yrotation Zrotation
									JOINT RightHand
									{
										OFFSET -29.527802 0.000000 0.000000
										CHANNELS 3 Xrotation Yrotation Zrotation
										JOINT RightHandThumb1
										{
											OFFSET -10.739754 -2.369614 9.225399
											CHANNELS 3 Xrotation Yrotation Zrotation
											JOINT RightHandThumb2
											{
												OFFSET -4.926170 -2.844131 2.844125
												CHANNELS 3 Xrotation Yrotation Zrotation
												JOINT RightHandThumb3
												{
													OFFSET -4.614891 -2.664413 2.664409
													CHANNELS 3 Xrotation Yrotation Zrotation
													JOINT RightHandThumb4
													{
														OFFSET -4.432465 -2.559082 2.559083
														CHANNELS 3 Xrotation Yrotation Zrotation
														End Site
														{
															OFFSET 0.000000 0.000000 0.000000
														}
													}
												}
											}
										}
										JOINT RightHandIndex1
										{
											OFFSET -26.467674 0.187653 6.405298
											CHANNELS 3 Xrotation Yrotation Zrotation
											JOINT RightHandIndex2
											{
												OFFSET -8.792900 0.000000 0.000000
												CHANNELS 3 Xrotation Yrotation Zrotation
												JOINT RightHandIndex3
												{
													OFFSET -10.075203 0.000000 0.000000
													CHANNELS 3 Xrotation Yrotation Zrotation
													End Site
													{
														OFFSET 0.000000 0.000000 0.000000
													}
												}
											}
										}
										JOINT RightHandMiddle1
										{
											OFFSET -25.764404 0.000000 0.000000
											CHANNELS 3 Xrotation Yrotation Zrotation
											JOINT RightHandMiddle2
											{
												OFFSET -9.393974 0.000000 0.000000
												CHANNELS 3 Xrotation Yrotation Zrotation
												JOINT RightHandMiddle3
												{
													OFFSET -10.771950 0.000000 0.000000
													CHANNELS 3 Xrotation Yrotation Zrotation
													End Site
													{
														OFFSET 0.000000 0.000000 0.000000
													}
												}
											}
										}
										JOINT RightHandRing1
										{
											OFFSET -24.660927 0.144547 -6.225808
											CHANNELS 3 Xrotation Yrotation Zrotation
											JOINT RightHandRing2
											{
												OFFSET -9.393799 0.000000 0.000000
												CHANNELS 3 Xrotation Yrotation Zrotation
												JOINT RightHandRing3
												{
													OFFSET -9.928497 0.000000 0.000000
													CHANNELS 3 Xrotation Yrotation Zrotation
													End Site
													{
														OFFSET 0.000000 0.000000 0.000000
													}
												}
											}
										}
										JOINT RightHandPinky1
										{
											OFFSET -23.655350 0.125290 -12.815412
											CHANNELS 3 Xrotation Yrotation Zrotation
											JOINT RightHandPinky2
											{
												OFFSET -8.425102 0.000000 0.000000
												CHANNELS 3 Xrotation Yrotation Zrotation
												JOINT RightHandPinky3
												{
													OFFSET -8.147003 0.000000 0.000000
													CHANNELS 3 Xrotation Yrotation Zrotation
													End Site
													{
														OFFSET 0.000000 0.000000 0.000000
													}
												}
											}
										}
									}
								}
							}
						}
					}
				}
			}
		}
	}
	JOINT LeftUpLeg
	{
		OFFSET 11.394100 -6.187798 -0.413800
		CHANNELS 3 Xrotation Yrotation Zrotation
		JOINT LeftLeg
		{
			OFFSET 0.430247 -32.302673 3.732800
			CHANNELS 3 Xrotation Yrotation Zrotation
			JOINT LeftFoot
			{
				OFFSET -0.430247 -48.264931 -6.423300
				CHANNELS 3 Xrotation Yrotation Zrotation
				JOINT LeftToeBase
				{
					OFFSET 4.230900 -16.068199 23.438400
					CHANNELS 3 Xrotation Yrotation Zrotation
					JOINT LeftToe_End
					{
						OFFSET 4.510700 0.695400 19.974600
						CHANNELS 3 Xrotation Yrotation Zrotation
						End Site
						{
							OFFSET 0.000000 0.000000 0.000000
						}
					}
				}
			}
		}
	}
	JOINT RightUpLeg
	{
		OFFSET -11.333700 -6.187798 -0.413800
		CHANNELS 3 Xrotation Yrotation Zrotation
		JOINT RightLeg
		{
			OFFSET -0.430392 -32.302628 3.733000
			CHANNELS 3 Xrotation Yrotation Zrotation
			JOINT RightFoot
			{
				OFFSET 0.430392 -48.264973 -6.423500
				CHANNELS 3 Xrotation Yrotation Zrotation
				JOINT RightToeBase
				{
					OFFSET -4.230900 -16.068199 23.438400
					CHANNELS 3 Xrotation Yrotation Zrotation
					JOINT RightToe_End
					{
						OFFSET -4.510700 0.695400 19.974600
						CHANNELS 3 Xrotation Yrotation Zrotation
						End Site
						{
							OFFSET 0.000000 0.000000 0.000000
						}
					}
				}
			}
		}
	}
}
MOTION
Frames: 6
Frame Time: 0.016667
14.174026 35.001381 401.135284 46.174210 -48.576729 79.166838 10.048900 -7.350656 -2.388011 20.581459 -10.516342 -0.144609 0.000000 0.000000 0.000000 20.581457 -10.516331 -0.144626 6.882651 9.770582 -6.782363 -14.592952 28.209545 -15.856187 -0.000001 -0.000001 -0.000000 0.362244 -5.563723 -21.430632 0.000000 0.000000 0.000000 0.286723 6.219455 -63.452027 -148.351750 -173.569081 -190.299316 39.822189 -0.729473 37.310619 -4.114269 -2.883216 2.590914 3.243725 8.782383 2.381176 0.000005 -0.000001 -0.000002 -0.000003 -0.000001 0.000002 -1.241503 -9.199129 -7.937321 0.088631 0.738673 -16.880083 -0.000001 0.000001 0.000000 -1.135459 -2.096680 -22.025801 -0.352561 -1.388805 -20.431051 0.000000 0.000000 0.000000 -0.604917 6.370762 -33.094288 -0.503179 -2.580187 -29.586108 -0.000001 -0.000001 0.000002 1.054959 14.668670 -34.412327 -0.798121 -5.868242 -45.099934 -0.000002 0.000001 -0.000000 -0.050557 24.927844 12.864286 0.000000 0.000000 0.000000 -31.840074 -0.829608 -5.819339 -379.939272 5.531935 357.334706 -23.422694 14.855851 -3.043166 -8.673387 4.254480 -11.634300 1.334053 -4.465138 -1.906677 -0.000000 -0.000008 -0.000008 0.000000 -0.000000 0.000001 -0.335823 9.317612 2.768384 0.227935 -1.535017 12.475392 -0.000000 -0.000001 -0.000003 -1.156258 -1.644427 1.983712 -0.068690 0.174128 10.971374 -0.000001 0.000000 -0.000001 1.493764 -11.293084 7.517311 -0.170923 1.899018 13.176996 -0.000001 0.000001 0.000004 2.276080 -19.063029 5.358323 -0.684455 6.522611 19.944099 -0.000001 0.000000 0.000000 -65.704309 -9.081149 37.795521 26.148484 -14.795366 1.036618 3.995478 2.637740 -44.570785 1.360802 8.356253 -13.471635 -0.000000 -0.000001 -0.000001 -131.934789 -3.694104 -10.598532 129.473735 6.407340 -4.444583 73.918377 30.078521 45.467900 10.943318 2.643479 19.727398 -0.000000 0.000000 0.000000 
14.293755 36.768921 407.830536 48.243433 -47.675014 77.475157 9.824772 -6.124663 -2.218415 20.001873 -8.523653 -0.281560 0.000000 0.000000 0.000000 20.001890 -8.523657 -0.281541 4.786791 10.382573 -5.045975 -15.958518 27.751243 -13.817705 0.000001 0.000001 -0.000002 0.397089 -5.187131 -22.907257 0.000000 0.000000 0.000000 -0.202597 5.720612 -61.837589 -146.267053 -172.915514 -190.464606 42.708848 -0.958261 34.784432 -4.445392 -3.482519 2.728193 2.927687 8.062628 2.313124 0.000008 -0.000000 -0.000004 -0.000000 -0.000001 0.000003 -1.336441 -9.878725 -7.883074 0.087931 0.739314 -16.878483 -0.000001 0.000002 0.000000 -1.169751 -2.214618 -21.672125 -0.339396 -1.353836 -20.091319 0.000001 -0.000001 -0.000001 -0.583576 6.403830 -32.534544 -0.486671 -2.550240 -29.022935 -0.000001 -0.000001 -0.000003 1.177300 14.915648 -33.689563 -0.786887 -5.857037 -44.330735 0.000001 -0.000002 -0.000000 -0.236747 25.773721 13.779206 0.000000 0.000000 0.000000 -31.371417 -4.560767 -1.693853 -384.756768 7.161672 357.547508 -27.510925 12.091543 2.976915 -7.433048 2.682779 -10.818158 1.979904 -5.919503 -2.080312 0.000000 -0.000007 -0.000006 -0.000000 -0.000000 0.000001 -0.393906 9.214347 3.477795 0.148235 -1.237751 15.555652 -0.000000 0.000000 0.000001 -1.160009 -1.569482 2.937668 -0.161685 0.560300 15.420971 -0.000001 -0.000001 -0.000000 1.457514 -10.868862 11.271569 -0.249406 2.199693 16.784278 0.000000 0.000000 0.000000 2.263659 -18.388042 10.401815 -0.823602 6.882911 24.954900 -0.000000 -0.000001 0.000001 -71.392313 -10.954420 39.831710 30.095268 -14.673120 -0.425994 7.750024 0.880544 -45.853939 0.899396 8.095132 -12.833481 -0.000001 -0.000000 0.000002 -130.193951 -0.322113 -13.486986 128.863649 12.147182 -4.041954 72.623885 31.446990 48.761192 12.392015 3.687067 19.683625 -0.000000 -0.000001 0.000000 
14.223335 38.384621 414.519287 49.226034 -47.132079 75.608268 9.515279 -5.004739 -2.335580 19.278006 -6.757567 -0.819782 0.000000 0.000000 0.000000 19.277995 -6.757575 -0.819786 2.631864 10.989364 -3.335730 -17.269370 27.297066 -11.811723 -0.000001 0.000004 0.000003 0.465108 -4.608213 -24.755905 0.000000 0.000000 0.000000 -0.485219 5.159804 -58.615386 -144.010796 -172.188290 -190.600267 45.765700 -1.440282 30.198787 -4.773363 -4.073352 2.858747 2.615697 7.353342 2.242187 0.000004 0.000001 -0.000005 -0.000001 -0.000001 -0.000000 -1.428906 -10.548858 -7.827913 0.087329 0.740310 -16.874291 0.000000 -0.000001 0.000000 -1.201772 -2.331318 -21.321002 -0.326567 -1.319081 -19.753894 -0.000001 0.000000 -0.000000 -0.562666 6.437002 -31.980298 -0.470587 -2.520378 -28.465302 -0.000001 -0.000001 0.000001 1.292196 15.162489 -32.973401 -0.775888 -5.845673 -43.569995 -0.000001 -0.000004 -0.000003 -0.396556 26.079976 14.675684 0.000000 0.000000 0.000000 -30.053488 -9.716193 4.642493 -391.232525 11.814321 359.537961 -30.477889 10.402942 5.041857 -6.133042 1.047366 -9.912458 2.654138 -7.447401 -2.244917 -0.000000 -0.000008 -0.000008 -0.000000 -0.000000 -0.000000 -0.450104 9.106269 4.214747 0.053985 -0.930983 18.768619 0.000001 -0.000000 -0.000002 -1.164880 -1.492393 3.920524 -0.288214 0.955485 20.070735 -0.000000 -0.000000 0.000000 1.386749 -10.440768 15.187358 -0.353053 2.507104 20.550975 -0.000000 0.000000 0.000000 2.167636 -17.721319 15.653580 -1.011862 7.240390 30.198667 0.000000 -0.000000 -0.000000 -79.160704 -14.000593 40.570166 38.766699 -14.614547 -2.217199 10.918938 -0.450797 -42.464430 0.652603 7.864912 -12.358926 0.000000 -0.000000 0.000000 -126.980689 3.105365 -17.293528 127.450114 17.295128 -3.449901 71.722177 32.258147 50.912817 13.558810 4.749416 20.123300 -0.000000 -0.000002 -0.000000 
14.074394 39.758728 421.097748 48.481287 -47.227541 73.183121 9.211520 -3.962894 -2.681054 18.588297 -5.258769 -1.680243 0.000000 0.000000 0.000000 18.588303 -5.258762 -1.680266 0.571269 11.532737 -1.744100 -18.427324 26.870560 -9.953109 -0.000000 -0.000001 0.000001 0.565320 -3.855089 -26.469877 0.000000 0.000000 0.000000 -0.377995 4.639000 -53.992379 -141.899557 -171.460862 -190.722979 48.339984 -2.166181 23.977639 -5.095737 -4.651569 2.981486 2.310049 6.659719 2.169117 0.000007 0.000001 -0.000006 -0.000000 0.000001 -0.000001 -1.518676 -11.204956 -7.773426 0.086786 0.741569 -16.868781 -0.000001 -0.000002 -0.000001 -1.231404 -2.446058 -20.976302 -0.314205 -1.284940 -19.422594 -0.000001 -0.000000 0.000001 -0.542358 6.469913 -31.437001 -0.455127 -2.490894 -27.918709 0.000001 0.000001 0.000000 1.399135 15.407069 -32.270779 -0.765232 -5.834288 -42.824846 -0.000001 0.000000 0.000002 -0.494400 25.605332 15.379849 0.000000 0.000000 0.000000 -27.617730 -15.476787 13.095658 -397.951300 18.998074 362.816097 -31.421513 9.986917 3.015510 -4.886147 -0.502117 -8.999059 3.296521 -8.910263 -2.385462 -0.000001 -0.000006 -0.000016 0.000001 0.000001 0.000001 -0.500780 9.004443 4.908676 -0.045888 -0.643389 21.813379 0.000000 0.000001 -0.000000 -1.170231 -1.421041 4.831201 -0.435750 1.321404 24.491223 -0.000000 0.000000 0.000001 1.289281 -10.051212 18.899801 -0.471391 2.791343 24.127251 -0.000000 -0.000000 0.000000 2.001304 -17.132469 20.631035 -1.228850 7.557146 35.191378 0.000000 0.000001 0.000001 -87.320007 -16.512208 39.865799 48.604804 -14.631904 -4.122368 13.722248 -1.462494 -38.170314 0.477613 7.517279 -11.745970 0.000000 0.000002 0.000001 -122.727516 6.926560 -21.662326 126.239518 21.201098 -2.892015 71.292804 32.637420 51.938463 15.940960 4.815201 19.285623 0.000000 0.000002 0.000000 
13.843872 40.905006 426.857086 45.692985 -47.843498 69.477210 8.980448 -3.037384 -3.088818 18.069542 -4.089490 -2.543621 0.000000 0.000000 0.000000 18.069545 -4.089491 -2.543614 -1.273841 11.977578 -0.348754 -19.370816 26.505676 -8.325426 -0.000002 0.000001 -0.000000 0.682209 -2.993226 -27.468060 0.000000 0.000000 0.000000 0.233028 4.312531 -48.450060 -140.251296 -170.824834 -190.853613 49.787137 -3.042619 16.958491 -5.410057 -5.213170 3.095068 2.013055 5.987040 2.094786 0.000005 0.000002 -0.000006 -0.000001 -0.000001 0.000001 -1.606042 -11.842472 -7.723095 0.086203 0.742674 -16.864990 -0.000000 -0.000000 -0.000000 -1.258605 -2.558226 -20.643617 -0.302527 -1.251990 -19.102873 0.000001 -0.000001 -0.000000 -0.522860 6.502151 -30.911705 -0.440445 -2.462193 -27.390257 0.000003 -0.000001 0.000002 1.497870 15.647005 -31.590516 -0.755070 -5.822984 -42.103851 0.000000 0.000001 -0.000002 -0.497463 24.275647 15.686293 0.000000 0.000000 0.000000 -23.816535 -20.840905 23.243836 -402.950179 27.846628 366.379461 -29.926505 10.593038 -2.180195 -3.799653 -1.835363 -8.166505 3.852823 -10.181425 -2.494202 -0.000000 -0.000006 -0.000016 -0.000000 -0.000000 -0.000002 -0.543955 8.918078 5.500733 -0.141203 -0.399385 24.427769 0.000000 0.000001 -0.000000 -1.175222 -1.361762 5.590596 -0.584237 1.627679 28.302306 -0.000000 0.000000 0.000001 1.182405 -9.731903 22.090013 -0.588025 3.029224 27.205514 -0.000001 0.000001 -0.000000 1.802905 -16.667859 24.912345 -1.441352 7.809754 39.501573 -0.000001 0.000001 0.000003 -95.473095 -17.517393 37.663979 57.527535 -15.933057 -5.564959 15.440488 -1.933528 -33.360208 0.077903 7.163244 -11.017242 0.000000 -0.000003 -0.000000 -117.238886 10.023526 -26.795252 125.187259 22.520650 -2.501235 71.800724 32.326831 50.956360 20.478065 2.813483 15.419007 -0.000000 -0.000001 0.000000 
13.413330 41.976746 432.442047 40.933368 -48.438288 63.885409 8.810252 -2.267304 -3.412838 17.694626 -3.365480 -3.145573 0.000000 0.000000 0.000000 17.694650 -3.365489 -3.145566 -2.832840 12.312499 0.802434 -20.078912 26.238903 -6.970494 -0.000002 -0.000000 0.000002 0.789262 -2.112503 -27.293323 0.000000 0.000000 0.000000 1.345533 4.329554 -42.629591 -139.319603 -170.379888 -191.002415 49.661677 -3.920607 10.156872 -5.713984 -5.754240 3.198314 1.727016 5.340576 2.020109 0.000008 0.000000 -0.000006 -0.000000 0.000001 0.000001 -1.691600 -12.456873 -7.681320 0.085463 0.743214 -16.866881 0.000000 -0.000001 -0.000000 -1.283522 -2.667195 -20.329156 -0.291673 -1.220832 -18.800854 0.000000 -0.000000 -0.000000 -0.504431 6.533163 -30.411878 -0.426747 -2.434685 -26.887431 0.000000 -0.000001 -0.000000 1.588341 15.879777 -30.941829 -0.745531 -5.811997 -41.415771 -0.000001 0.000000 -0.000003 -0.389780 22.237250 15.431329 0.000000 0.000000 0.000000 -18.527892 -24.914553 34.383517 -404.443313 37.460985 369.095964 -26.233088 11.662516 -8.886554 -2.953905 -2.864979 -7.491485 4.284327 -11.169458 -2.570122 0.000001 -0.000008 -0.000013 0.000001 0.000000 0.000001 -0.579764 8.851945 5.958679 -0.222951 -0.213580 26.447618 0.000000 0.000000 0.000000 -1.179208 -1.317033 6.168145 -0.713245 1.857891 31.253037 0.000000 0.000000 0.000000 1.085825 -9.496916 24.554571 -0.686873 3.208571 29.587198 -0.000000 -0.000001 0.000000 1.618171 -16.341019 28.222045 -1.617292 7.992395 42.840794 0.000000 -0.000000 0.000001 -102.359237 -16.483545 35.339576 64.361672 -17.293925 -6.491064 17.970778 -2.258696 -28.788691 -0.415432 7.067144 -10.638366 -0.000000 0.000000 -0.000000 -109.721013 12.211767 -33.195641 123.948454 23.153499 -2.184703 71.929487 31.666960 49.757546 25.459050 -0.387290 11.068847 0.000000 -0.000001 -0.000000 
